<?xml version="1.0" encoding="UTF-8"?>
<svg id="Layer_2" data-name="Layer 2" xmlns="http://www.w3.org/2000/svg" viewBox="0 0 86.14 59.09">
  <defs>
    <style>
      .cls-1 {
        fill: #231f20;
        stroke-width: 0px;
      }
    </style>
  </defs>
  <path class="cls-1" d="m.74,4.27l18.26,18.26c9.71,9.71,19.41,19.41,29.12,29.12,2.23,2.23,4.47,4.47,6.7,6.7s5.81-1.26,3.54-3.54c-6.09-6.09-12.17-12.17-18.26-18.26C30.39,26.85,20.68,17.15,10.98,7.44L4.27.74C1.99-1.54-1.54,1.99.74,4.27h0Z"/>
  <path class="cls-1" d="m54.82.74c-6.09,6.09-12.17,12.17-18.26,18.26-9.71,9.71-19.41,19.41-29.12,29.12-2.23,2.23-4.47,4.47-6.7,6.7s1.26,5.81,3.54,3.54c6.09-6.09,12.17-12.17,18.26-18.26,9.71-9.71,19.41-19.41,29.12-29.12,2.23-2.23,4.47-4.47,6.7-6.7s-1.26-5.81-3.54-3.54h0Z"/>
  <path class="cls-1" d="m27.78,4.27l18.26,18.26c9.71,9.71,19.41,19.41,29.12,29.12,2.23,2.23,4.47,4.47,6.7,6.7s5.81-1.26,3.54-3.54c-6.09-6.09-12.17-12.17-18.26-18.26-9.71-9.71-19.41-19.41-29.12-29.12L31.31.74c-2.28-2.28-5.81,1.26-3.54,3.54h0Z"/>
  <path class="cls-1" d="m81.87.74c-6.09,6.09-12.17,12.17-18.26,18.26-9.71,9.71-19.41,19.41-29.12,29.12-2.23,2.23-4.47,4.47-6.7,6.7s1.26,5.81,3.54,3.54c6.09-6.09,12.17-12.17,18.26-18.26,9.71-9.71,19.41-19.41,29.12-29.12,2.23-2.23,4.47-4.47,6.7-6.7s-1.26-5.81-3.54-3.54h0Z"/>
</svg>